REM DIRINDEX 1\2,1\4,1\3\5,1\3\6,1\3\7
REM DIRNAME folder01,folder02,folder03,folder04,folder05,folder06,folder07
TITLE ""
FILE "CD1Track03.mp3" MP3
  TRACK 01 AUDIO
    TITLE "0:"
    INDEX 01 00:00:00
  TRACK 02 AUDIO
    TITLE "5:cjc081_0008"
    INDEX 01 00:00:27
  TRACK 03 AUDIO
    TITLE "0:"
    INDEX 01 00:01:66
  TRACK 04 AUDIO
    TITLE "6:cjc081_0009"
    INDEX 01 00:02:32
  TRACK 05 AUDIO
    TITLE "0:"
    INDEX 01 00:04:23
  TRACK 06 AUDIO
    TITLE "5:cjc081_0010"
    INDEX 01 00:04:68
  TRACK 07 AUDIO
    TITLE "0:"
    INDEX 01 00:06:26
  TRACK 08 AUDIO
    TITLE "6:cjc081_0011"
    INDEX 01 00:06:71
  TRACK 09 AUDIO
    TITLE "0:"
    INDEX 01 00:08:21
  TRACK 10 AUDIO
    TITLE "5:cjc081_0012"
    INDEX 01 00:08:62
  TRACK 11 AUDIO
    TITLE "0:"
    INDEX 01 00:10:06
  TRACK 12 AUDIO
    TITLE "6:cjc081_0013"
    INDEX 01 00:10:49
  TRACK 13 AUDIO
    TITLE "0:"
    INDEX 01 00:12:36
  TRACK 14 AUDIO
    TITLE "5:cjc081_0014"
    INDEX 01 00:13:02
  TRACK 15 AUDIO
    TITLE "0:"
    INDEX 01 00:14:15
  TRACK 16 AUDIO
    TITLE "6:cjc081_0015"
    INDEX 01 00:14:58
  TRACK 17 AUDIO
    TITLE "0:"
    INDEX 01 00:15:54
  TRACK 18 AUDIO
    TITLE "5:cjc081_0016"
    INDEX 01 00:16:26
  TRACK 19 AUDIO
    TITLE "0:"
    INDEX 01 00:17:45
  TRACK 20 AUDIO
    TITLE "6:cjc081_0017"
    INDEX 01 00:18:15
  TRACK 21 AUDIO
    TITLE "0:"
    INDEX 01 00:21:45
  TRACK 22 AUDIO
    TITLE "5:cjc081_0018"
    INDEX 01 00:22:15
  TRACK 23 AUDIO
    TITLE "0:"
    INDEX 01 00:23:44
  TRACK 24 AUDIO
    TITLE "6:cjc081_0019"
    INDEX 01 00:24:10
  TRACK 25 AUDIO
    TITLE "0:"
    INDEX 01 00:25:66
  TRACK 26 AUDIO
    TITLE "5:cjc081_0020"
    INDEX 01 00:26:34
  TRACK 27 AUDIO
    TITLE "0:"
    INDEX 01 00:27:57
  TRACK 28 AUDIO
    TITLE "6:cjc081_0021"
    INDEX 01 00:28:23
  TRACK 29 AUDIO
    TITLE "0:"
    INDEX 01 00:29:21
  TRACK 30 AUDIO
    TITLE "5:cjc081_0022"
    INDEX 01 00:29:66
  TRACK 31 AUDIO
    TITLE "0:"
    INDEX 01 00:31:18
  TRACK 32 AUDIO
    TITLE "6:cjc081_0023"
    INDEX 01 00:31:65
  TRACK 33 AUDIO
    TITLE "0:"
    INDEX 01 00:33:09
  TRACK 34 AUDIO
    TITLE "5:cjc081_0024"
    INDEX 01 00:33:52
  TRACK 35 AUDIO
    TITLE "0:"
    INDEX 01 00:34:69
  TRACK 36 AUDIO
    TITLE "6:cjc081_0025"
    INDEX 01 00:35:45
  TRACK 37 AUDIO
    TITLE "0:"
    INDEX 01 00:38:08
  TRACK 38 AUDIO
    TITLE "5:cjc081_0026"
    INDEX 01 00:38:53
  TRACK 39 AUDIO
    TITLE "0:"
    INDEX 01 00:40:03
  TRACK 40 AUDIO
    TITLE "6:cjc081_0027"
    INDEX 01 00:40:44
  TRACK 41 AUDIO
    TITLE "0:"
    INDEX 01 00:42:74
  TRACK 42 AUDIO
    TITLE "5:cjc081_0028"
    INDEX 01 00:43:42
  TRACK 43 AUDIO
    TITLE "0:"
    INDEX 01 00:44:67
  TRACK 44 AUDIO
    TITLE "6:cjc081_0029"
    INDEX 01 00:45:37
  TRACK 45 AUDIO
    TITLE "0:"
    INDEX 01 00:46:51
  TRACK 46 AUDIO
    TITLE "5:cjc081_0030"
    INDEX 01 00:47:21
  TRACK 47 AUDIO
    TITLE "0:"
    INDEX 01 00:48:44
  TRACK 48 AUDIO
    TITLE "6:cjc081_0031"
    INDEX 01 00:49:16
  TRACK 49 AUDIO
    TITLE "0:"
    INDEX 01 00:50:74
  TRACK 50 AUDIO
    TITLE "5:cjc081_0032"
    INDEX 01 00:51:42
  TRACK 51 AUDIO
    TITLE "0:"
    INDEX 01 00:52:69
  TRACK 52 AUDIO
    TITLE "6:cjc081_0033"
    INDEX 01 00:53:39
  TRACK 53 AUDIO
    TITLE "0:"
    INDEX 01 00:55:30
  TRACK 54 AUDIO
    TITLE "5:cjc081_0034"
    INDEX 01 00:55:73
  TRACK 55 AUDIO
    TITLE "0:"
    INDEX 01 00:57:15
  TRACK 56 AUDIO
    TITLE "6:cjc081_0035"
    INDEX 01 00:57:64
  TRACK 57 AUDIO
    TITLE "0:"
    INDEX 01 00:59:38
  TRACK 58 AUDIO
    TITLE "5:cjc081_0036"
    INDEX 01 01:00:08
  TRACK 59 AUDIO
    TITLE "0:"
    INDEX 01 01:01:34
  TRACK 60 AUDIO
    TITLE "6:cjc081_0037"
    INDEX 01 01:02:05
  TRACK 61 AUDIO
    TITLE "0:"
    INDEX 01 01:03:20
  TRACK 62 AUDIO
    TITLE "7:cjc081_0038"
    INDEX 01 01:04:60
  TRACK 63 AUDIO
    TITLE "0:"
    INDEX 01 01:15:09
